<?xml version="1.0" standalone="no"?>
<!DOCTYPE svg PUBLIC "-//W3C//DTD SVG 20010904//EN"
 "http://www.w3.org/TR/2001/REC-SVG-20010904/DTD/svg10.dtd">
<svg version="1.0" xmlns="http://www.w3.org/2000/svg"
 width="690.000000pt" height="371.000000pt" viewBox="0 0 690.000000 371.000000"
 preserveAspectRatio="xMidYMid meet">

<g transform="translate(0.000000,371.000000) scale(0.100000,-0.100000)"
fill="#000000" stroke="none">
<path d="M2960 3629 c-33 -45 -60 -85 -60 -89 0 -4 53 -52 118 -108 66 -56
127 -111 137 -122 17 -18 12 -24 -181 -213 l-199 -194 -158 151 c-87 83 -162
151 -167 151 -13 0 -190 -229 -187 -242 1 -7 193 -189 427 -404 234 -216 425
-395 425 -399 0 -4 -109 -100 -243 -214 l-243 -208 -218 210 -217 211 -285
-220 c-268 -207 -286 -219 -319 -214 -19 2 -61 5 -93 5 l-59 0 -236 232 c-130
127 -238 236 -240 243 -2 7 60 82 138 168 77 86 140 162 140 169 0 7 -16 52
-36 101 l-37 87 -68 0 -69 0 -56 -85 c-31 -46 -61 -82 -66 -79 -5 3 -26 41
-48 85 l-40 79 -90 0 -90 0 -62 -85 c-34 -47 -65 -85 -68 -85 -4 0 -18 37 -32
83 l-26 82 -128 -3 c-71 -2 -173 -7 -226 -10 l-98 -7 664 -641 664 -641 94 -7
c51 -3 143 -8 203 -11 l110 -6 219 160 219 160 509 -501 c279 -275 508 -506
508 -512 0 -6 -55 -67 -123 -134 l-123 -123 -99 3 -99 3 -366 395 -366 395
-174 3 c-96 2 -216 0 -267 -3 l-92 -7 -178 -306 c-97 -169 -189 -318 -203
-332 -14 -14 -159 -104 -323 -199 l-297 -174 6 -46 c3 -26 11 -76 18 -111 l11
-65 145 0 145 0 45 82 c25 45 47 83 50 83 3 0 28 -37 55 -83 l50 -82 101 -3
102 -3 47 81 c26 44 51 82 56 86 5 3 37 -33 71 -80 l62 -86 92 0 92 0 22 120
c12 65 20 123 18 128 -1 6 -58 56 -126 112 -67 56 -122 105 -122 108 1 4 36
75 78 157 l77 150 176 3 176 2 359 -390 359 -390 287 0 c287 0 288 0 301 23 8
12 59 122 113 244 54 122 101 223 104 223 3 0 52 -105 109 -233 57 -127 109
-238 114 -244 7 -10 79 -13 296 -13 l287 0 359 390 359 390 176 -2 175 -3 77
-150 c42 -82 77 -153 78 -157 0 -4 -55 -54 -122 -110 -68 -56 -124 -108 -125
-117 -2 -9 7 -65 20 -126 l22 -110 90 -3 90 -3 64 86 c34 47 66 85 69 85 4 0
29 -38 55 -85 l48 -85 99 0 c112 0 106 -4 170 108 19 34 37 62 40 62 3 0 26
-37 50 -82 l45 -83 146 -3 146 -3 17 112 c10 61 14 115 9 119 -4 4 -141 85
-303 179 -162 95 -303 180 -312 189 -9 9 -98 157 -197 328 l-181 311 -68 6
c-37 4 -156 7 -264 7 l-197 0 -362 -392 c-200 -216 -368 -396 -374 -400 -13
-10 -227 -10 -240 0 -18 13 -205 241 -205 250 0 13 1006 1002 1020 1002 6 0
108 -70 225 -156 l214 -155 198 11 c122 7 204 16 214 23 10 7 310 296 668 642
l651 630 -87 6 c-49 3 -150 9 -225 13 l-136 7 -28 -85 c-16 -48 -31 -86 -34
-86 -3 1 -32 38 -65 83 l-60 82 -91 3 -90 3 -45 -86 c-24 -46 -47 -85 -50 -85
-3 0 -31 38 -63 85 l-56 85 -68 0 -68 0 -37 -88 c-20 -48 -37 -92 -37 -99 0
-6 65 -84 145 -174 l146 -163 -53 -51 c-29 -28 -138 -134 -241 -236 l-188
-184 -92 -6 c-51 -4 -100 -3 -109 2 -9 5 -140 104 -290 219 l-272 211 -136
-133 c-74 -73 -172 -169 -217 -212 l-81 -79 -234 201 c-129 110 -239 206 -245
214 -8 10 83 99 423 412 l434 399 -48 61 c-27 34 -70 89 -97 124 -26 34 -50
62 -52 62 -3 0 -74 -66 -159 -147 -85 -82 -160 -150 -165 -152 -9 -3 -388 361
-397 381 -2 3 58 59 133 124 76 66 134 123 131 130 -3 7 -28 46 -57 86 -29 40
-54 74 -55 76 -1 2 -94 -61 -206 -140 -112 -80 -210 -148 -216 -152 -10 -6
-250 153 -409 272 l-32 24 -61 -83z m693 -755 l188 -191 -190 -177 c-104 -97
-195 -176 -201 -176 -6 0 -97 80 -201 177 l-190 177 193 193 c106 106 198 192
203 191 6 -2 94 -89 198 -194z m80 -1135 c149 -138 273 -254 275 -258 3 -8
-546 -526 -557 -526 -11 0 -562 518 -559 525 7 14 549 510 558 510 6 0 133
-113 283 -251z"/>
</g>
</svg>
